<svg xmlns="http://www.w3.org/2000/svg" viewBox="0 0 220 170">
  <rect width="220" height="170" fill="#F9F2E8" rx="12"/>
  <text x="110" y="20" text-anchor="middle" font-family="'-apple-system','Segoe UI',Arial,sans-serif" font-size="9" font-weight="700" letter-spacing="0.09em" fill="#A89070">EDGE · UAV · MARITIME</text>

  <!-- Sky area -->
  <rect x="10" y="26" width="200" height="72" rx="7" fill="#FDF5E8"/>
  <!-- Sea area -->
  <rect x="10" y="96" width="200" height="48" rx="7" fill="#F5EBD8"/>
  <!-- Horizon -->
  <line x1="10" y1="97" x2="210" y2="97" stroke="#CDBDA0" stroke-width="1"/>
  <!-- Wave lines -->
  <path d="M 10 106 Q 30 101 52 106 Q 74 111 96 106 Q 118 101 140 106 Q 162 111 184 106 Q 200 102 210 106"
        fill="none" stroke="#D4B888" stroke-width="1.5"/>
  <path d="M 10 116 Q 32 111 54 116 Q 76 121 98 116 Q 120 111 142 116 Q 164 121 186 116 Q 200 113 210 116"
        fill="none" stroke="#CDBDA0" stroke-width="1" opacity="0.7"/>

  <!-- ===== Quadcopter UAV — X-frame, top-down view ===== -->
  <!-- Diagonal arms (X-configuration) -->
  <line x1="103" y1="50" x2="88"  y2="38" stroke="#B5541F" stroke-width="3" stroke-linecap="round"/>
  <line x1="117" y1="50" x2="132" y2="38" stroke="#B5541F" stroke-width="3" stroke-linecap="round"/>
  <line x1="103" y1="64" x2="88"  y2="76" stroke="#B5541F" stroke-width="3" stroke-linecap="round"/>
  <line x1="117" y1="64" x2="132" y2="76" stroke="#B5541F" stroke-width="3" stroke-linecap="round"/>
  <!-- Rotor discs (spinning rings + subtle fill) -->
  <circle cx="88"  cy="38" r="11" fill="#D4874A" opacity="0.15"/>
  <circle cx="88"  cy="38" r="11" fill="none" stroke="#D4874A" stroke-width="1.5" opacity="0.7"/>
  <circle cx="132" cy="38" r="11" fill="#D4874A" opacity="0.15"/>
  <circle cx="132" cy="38" r="11" fill="none" stroke="#D4874A" stroke-width="1.5" opacity="0.7"/>
  <circle cx="88"  cy="76" r="11" fill="#D4874A" opacity="0.15"/>
  <circle cx="88"  cy="76" r="11" fill="none" stroke="#D4874A" stroke-width="1.5" opacity="0.7"/>
  <circle cx="132" cy="76" r="11" fill="#D4874A" opacity="0.15"/>
  <circle cx="132" cy="76" r="11" fill="none" stroke="#D4874A" stroke-width="1.5" opacity="0.7"/>
  <!-- Motor hubs -->
  <circle cx="88"  cy="38" r="3.5" fill="#7A3418"/>
  <circle cx="132" cy="38" r="3.5" fill="#7A3418"/>
  <circle cx="88"  cy="76" r="3.5" fill="#7A3418"/>
  <circle cx="132" cy="76" r="3.5" fill="#7A3418"/>
  <!-- Central body -->
  <circle cx="110" cy="57" r="11" fill="#B5541F"/>
  <!-- Camera gimbal / lens -->
  <circle cx="110" cy="57" r="5.5" fill="#7A3418"/>
  <circle cx="110" cy="57" r="2.5" fill="#B5541F" opacity="0.5"/>

  <!-- Edge server (bottom-left) -->
  <rect x="18" y="102" width="38" height="34" rx="4" fill="white" stroke="#D4874A" stroke-width="1.4"/>
  <rect x="22" y="106" width="30" height="5" rx="1" fill="#F9F2E8" stroke="#CDBDA0" stroke-width="0.6"/>
  <rect x="22" y="114" width="30" height="5" rx="1" fill="#F9F2E8" stroke="#CDBDA0" stroke-width="0.6"/>
  <rect x="22" y="122" width="30" height="5" rx="1" fill="#F9F2E8" stroke="#CDBDA0" stroke-width="0.6"/>
  <circle cx="46" cy="108.5" r="2" fill="#D4874A"/>
  <circle cx="46" cy="116.5" r="2" fill="#D4874A" opacity="0.45"/>
  <circle cx="46" cy="124.5" r="2" fill="#D4874A" opacity="0.3"/>
  <text x="37" y="142" text-anchor="middle" font-family="'-apple-system','Segoe UI',Arial,sans-serif" font-size="7.5" fill="#A89070">edge</text>

  <!-- Ship (bottom-right) -->
  <path d="M 110 110 L 195 110 L 190 132 L 115 132 Z" fill="white" stroke="#D4874A" stroke-width="1.4"/>
  <rect x="130" y="100" width="40" height="12" rx="2" fill="#F0D8B0" stroke="#D4874A" stroke-width="1"/>
  <line x1="144" y1="100" x2="144" y2="90" stroke="#B5541F" stroke-width="2" stroke-linecap="round"/>
  <line x1="144" y1="92" x2="154" y2="92" stroke="#B5541F" stroke-width="1.5" stroke-linecap="round"/>
  <circle cx="156" cy="92" r="2" fill="#D4874A"/>
  <text x="152" y="142" text-anchor="middle" font-family="'-apple-system','Segoe UI',Arial,sans-serif" font-size="7.5" fill="#A89070">maritime</text>

  <!-- Dashed links from UAV to ground nodes -->
  <path d="M 96 65 Q 62 82 37 102" fill="none" stroke="#D4874A" stroke-width="1.3" stroke-dasharray="4,3" opacity="0.7"/>
  <path d="M 124 65 Q 150 82 152 100" fill="none" stroke="#D4874A" stroke-width="1.3" stroke-dasharray="4,3" opacity="0.7"/>

  <!-- Caption -->
  <text x="110" y="157" text-anchor="middle" font-family="'-apple-system','Segoe UI',Arial,sans-serif" font-size="11" font-weight="600" fill="#B5541F">Heterogeneous Networks</text>
</svg>
